<?xml version="1.0" encoding="UTF-8"?>
<svg id="Capa_2" data-name="Capa 2" xmlns="http://www.w3.org/2000/svg" viewBox="0 0 67.28 119.79">
  <g id="Capa_1-2" data-name="Capa 1">
    <path d="M66.89,16.57c-.97-3.77-1.19-7.74-1.95-11.56-.43-3.2-3.86-3.36-6.52-3.43-3.53-.15-6.87-.36-10.08-.79-2.48-.32-4.82-.58-6.98-.18-1.78.3-3.39.83-5.23.82-5.06.18-17.93-4.79-19.28,2.8.78,12.99-.98,25.95-2.03,38.87.54,5.86-.77,12.44-1.27,18.31-.35,7.79-.21,16.82-.28,25.81.02,8.31-.13,16.14.02,24.45.05,3.19-3.64,3.22-6.37,3.11-2.17.05-4.5-.19-6.28,1.08-1.26.94-.49,2.39.93,2.74,5.48,1.05,11.02,1.05,16.67.94,1.58-.07,3.21-.18,4.78-.12,2.89.19,7.58,1.55,7.88-2.61-.11-4.28-5.86-2.5-9.67-2.62-2.03.08-3.62-.8-3.61-2.91-.36-14.21.29-42.93,1.63-61.31.93-8.66,1.56-17.68,2.06-26.4.4-4.63.45-9.58,1.32-13.65.39-2.15,1.68-4.25,4.1-4.28,5.27.44,10.72,1.22,16.12,1.58,3.18.3,6.62-.2,9.84-.18,2.35.17,5.37-.45,6.96,1.54,2.63,4.19-2.57,11.41.74,15.4,1.02,1.23,2.82,1.49,4.21.74,2.87-1.33,3.04-5.19,2.32-7.98l-.04-.19Z"/>
  </g>
</svg>