<?xml version="1.0" encoding="UTF-8"?>
<svg id="Capa_2" data-name="Capa 2" xmlns="http://www.w3.org/2000/svg" viewBox="0 0 546.45 543.68">
  <g id="Layer_1" data-name="Layer 1">
    <g id="_6OxAdy.tif" data-name="6OxAdy.tif">
      <path d="M295.16,409.73c-8.91-22.82-10.05.7-11.01,10.61-1.71,13.79-3.7,27.41-6.74,41-5.98,23.15-6.93,49.39-20.2,69.8-33.57,27.05-25.95-56.01-28.49-72.74-1.59-22.71-1.8-46.11-1.8-68.76.32-19.63-4.94-17.24-13.78-3.6-8.28,11.83-16.75,23.89-24.8,35.85-9.17,11.73-15.13,28.39-29.14,35-17.46,4.94-18.91-16.88-15.11-28.79,36.4-160.49,75.57-116.83-91.67-144.11-15.03-2.6-31.53-2.14-45.48-8.75-12.08-6.79-6.84-20.76,3.79-26.21,42.82-24.42,90.67-37.24,137.61-51.18,10.68-2.27,17.69-9.84,15.68-21.04-5-48.43-12.29-96.73-21.88-144.44-9.29-30.38,14.36-44.14,35.71-20.19,32.58,45.1,61.66,92.88,86.97,142.54,9.62,22.37,22.68,5.1,32.91-5.88,16.16-16.47,29.84-35.1,43.67-53.34,10.17-10.91,24.21-42.05,41.86-33.91,11.88,7.74,6.47,24.65,5.69,36.48-3.58,36.32-7.55,72.62-14.06,108.58-2,11.31-6.65,26.93,6.65,32.95,48.33,19.85,97.96,36.9,146.06,57.53,21,7.22,28.2,26.54,1.88,32.71-180.42,18.4-173.34-75.06-163,138.71.95,12.01,1.18,24.98,1.81,37.25,0,10.02,2.16,20.56-1.46,30.06-3.7,9.54-15.93,10.26-22.09,2.53-22.27-40.08-31.48-86.61-49.58-128.68Z"/>
    </g>
  </g>
</svg>