<?xml version="1.0" encoding="UTF-8"?>
<svg id="Capa_2" data-name="Capa 2" xmlns="http://www.w3.org/2000/svg" viewBox="0 0 1651.25 597.98">
  <g id="Capa_1-2" data-name="Capa 1">
    <path d="M1649.09,260.65c7.57-69.1-4.59-129.45-39.42-189.77-24.07-49.8-50.61-88.28-110.69-60.12-31.43,13.74-58.33,42.29-81.56,68.47-21.35,21.33-41.1,61.73-55.55,39.06-31.49-72.19-64.66-86.53-141.68-64.5-21.79,5-45.7,18.17-67.86,12.29-19.93-6.67-24.17-31.87-37.73-46.42-23.31-26.22-63.3-21.81-93.67-11.86-144.97,45.45-113.82,150.67-182.08,102.16-54.49-44.77-89.17-40.87-155.36-24.84-24.86,5.6-52.34,6.15-73.64,21.47-11.2,7.97-20.69,19.37-29.74,22.94-23.74,9.85-41.42-43.11-63.38-54.88-21.55-16.83-50.21-18.15-75.56-10.14-34.7,7.74-73.8,46.79-106.8,17.66-22-21.88-37.19-55.11-68.74-64.94C149.86-11.02,131.98,161.35,102.12,237.47c-7.81,22.17-17.53,43.58-26.76,65.18-20.47,45.92-29.62,95.95-49.75,142.02C14.16,471.98.22,499.06,0,529.47c-.36,26.83,10.53,55.13,36.43,63.99,46.18,13.28,82.36-41.55,79.62-83.25-4.1-44.94-26.41-81.06-10.18-127.84,18.54-59.24,46.56-114.92,66.16-173.87,7.43-21.3,14.1-42.92,23.58-63.43,41.5-83.65,79.45-32.97,87.83,33.2,7.52,43.86-9.64,85.97-8.18,129.66.66,40.1,13.42,79.85,6.21,119.63-3.6,24.79-13.14,51.41-3.8,75.8,7.35,21.23,33.45,37.01,54.04,24.62,30.38-21.31,25.95-65.55,32.64-98.34,9.48-49.81,18.64-99.51,17.22-150.49,2.36-48.37,17.53-97.49,41.8-139.28,10.66-15.94,26.99-18.76,40.23-4.03,16.38,17.58,20.56,45.56,18.73,69.47-2.51,36.18-14.64,71.69-23.46,106.78-11.03,45.02-17.32,91.1-25.1,136.82-2.85,21.13-.66,47.34,18.12,60.11,14.41,10.24,34.75,7.11,47.62-4.61,13.58-11.77,21.33-29.75,28.5-46.72,8.81-21.69,17.78-43.42,25.12-65.58,4.65-9.42,13.55-62.06,26.73-54.41,7.09,8.43,6.15,23.91,6.82,35.26,0,25.12-1.77,50.77,7.74,74.76,13.29,37.48,49.15,61.57,87.81,65.66,20.24,3.64,45.31.66,63.22,8.1,10.92,4.44,18.22,13.94,23.27,24.37,7.76,16.52,14.92,36.12,31.42,45.61,22.82,14.4,52.34,3.46,66.11-18.71,22.29-34.11,17.14-77.45,20.44-116.3,2.71-32.11,9.84-64.24,11.14-96.66,1.57-20.87,1.16-45.56,14.77-62.44,40.36-42.67,115.82,51.01,129.45,86.85,16.6,38.03,8.51,82.66,25.43,120.36,18.28,40.01,57.09,27.3,66.04-11.12,5.72-22.32,2.15-45.71-.11-68.31-2.7-23.9-4.33-47.65-5.17-71.73-3.66-60.5,14.24-71.82,71.8-56.14,49.84,9.55,62.11,39.45,61.98,88.54,3.43,48.04-21.91,125.21,12.55,163.27,19.08,18.63,46.99,5.26,58.7-16.43,9.98-16.2,12.46-36.3,15.33-54.56,3.82-38.58,26.66-2.62,41.84,9.06,37.61,33,98.17,35.52,137.55,4.44,37.28-29.49,52.54-76.43,73.87-117.36,18.06-36.72,42.93-71.59,47.2-113.32l.03-.27ZM1402.02,305.5c-1.06-67.86,12.76-121.55,59.71-172.25,10.52-12.27,22.01-25.93,36.13-32.9,22.98-12.09,49.71.04,64.28,19.97,13.15,17.31,19.38,38.74,25.14,59.42,9.63,32.73,9.18,59.04.79,91.64-4.71,19.62-8.11,39.45-13.63,58.84-10.87,38.03-34.26,71.28-60.25,100.7-34.47,39.76-81.14,49.99-102.94-7.42-12.61-37.68-8.11-78.53-9.22-117.74v-.27ZM1341.89,219.33c9.18,3.4,10.13,22.33,9.3,32.7-.63,11.37-2.15,22.72-3.48,33.81-2.39,13.59-3.27,54.77-22.54,53.09-11.25-2.51-18.1-13.37-24.32-25.09-6.56-13.27-10.3-28.5-7.26-43.2,2.2-10.92,7.54-20.91,14.33-29.96,7.69-9.82,21.69-25.51,33.8-21.41l.16.07ZM1278.5,111.82c19.99,22.75,26.92,56.72,19.11,85.9-8.23,30-29.07,44.81-58.24,31.48-13.77-5.96-27.21-13.68-41.74-17.85-13.27-4.25-31.37-6.17-41.43-12.97-27.64-18.14,16.58-64.76,32-79.25,25.9-24.19,63.33-37.51,90.12-7.51l.19.2ZM1071.36,255.9c-1.34,12.12-3.15,22.27-12.35,28.09-14.65,8.25-37.65-1.45-44.01-17.07-11.97-29.05,32.1-72.4,52.57-91.28,8.23-7.86,38.43-28.04,29.03-1.07-5.37,13.78-14.19,26.89-18.61,40.95-4.55,12.84-5.5,26.59-6.6,40.09l-.03.29ZM988.78,75.98c22.2-15.32,51.64-12.6,54.26,18.06,1.84,30.23-31.64,80.27-56.66,96.09-15.9,10.7-36.11,15.6-55,11.71-13-2.42-26.22-11.22-26.18-25.13-.49-11.02,7.81-24.22,15.45-33.61,7.73-9.64,16.22-18.5,24.64-27.37,13.71-14,26.93-28.7,43.26-39.61l.23-.15ZM782.17,177.75c24.34,22.35,37.72,116.13,40.68,150.83,3.37,40.9,1.94,80.58-27.74,112.48-11.55,13.17-24.56,25.73-39.01,35.68-26.16,19-65.54,21.58-86.71-5.43-8.18-10.2-12.9-22.99-16.12-35.75-12.62-45.6,1.09-87.9,13.3-132.07,4.45-15.72,8.9-31.44,12.99-47.26,5.34-20.06,10.22-42.15,22.67-57.92,15.29-20.07,58.34-40.9,79.76-20.72l.18.16Z"/>
  </g>
</svg>